<svg xmlns="http://www.w3.org/2000/svg" viewBox="0 0 1049 1024" width="1049" height="1024">
<g transform="translate(0,1024) scale(0.1,-0.1)" fill="#000000" stroke="none">
<path d="M2681 8269 c-292 -52 -528 -269 -607 -560 -24 -89 -25 -281 -1 -369
56 -208 195 -379 388 -480 112 -58 207 -80 347 -80 139 0 215 17 332 72 l85
41 233 -239 c128 -131 318 -327 422 -435 l189 -195 -64 -90 c-235 -329 -321
-733 -240 -1127 38 -185 129 -393 237 -542 l66 -90 -101 -105 c-264 -274 -743
-765 -749 -768 -3 -2 -39 13 -78 33 -112 56 -205 77 -340 77 -218 0 -373 -64
-526 -217 -81 -80 -98 -103 -142 -195 -57 -118 -82 -219 -82 -335 0 -284 156
-536 412 -665 131 -66 216 -84 371 -78 103 4 136 9 210 35 124 44 189 85 292
188 72 72 99 107 133 175 64 129 85 227 80 374 -5 139 -32 234 -97 348 -35 60
-37 69 -23 80 8 7 198 202 421 433 223 231 409 421 412 423 4 2 44 -24 90 -58
162 -116 347 -196 559 -241 148 -31 400 -32 547 0 200 42 417 137 562 247 40
30 75 54 79 54 4 -1 69 -78 144 -173 75 -95 198 -248 274 -341 l137 -169 -17
-26 c-155 -237 -117 -557 87 -736 229 -200 569 -191 782 20 292 289 178 785
-215 934 -56 21 -82 25 -185 25 -100 0 -130 -4 -180 -23 l-60 -22 -28 33 c-15
18 -144 177 -285 353 l-258 320 58 78 c134 181 214 372 257 615 l16 93 284 0
285 0 21 -60 c58 -160 195 -288 365 -342 99 -31 242 -29 344 5 237 80 386 287
386 536 0 259 -162 473 -414 545 -70 20 -201 23 -277 5 -182 -42 -337 -177
-403 -350 l-22 -59 -169 -4 c-94 -3 -222 -2 -287 1 l-116 5 -7 56 c-27 222
-133 477 -273 661 l-49 65 345 355 c190 195 382 392 427 438 l81 83 50 -30
c93 -57 194 -84 336 -89 203 -7 351 40 498 157 182 145 280 347 280 578 0 128
-20 222 -70 328 -94 202 -274 353 -490 411 -88 24 -281 24 -370 1 -251 -66
-445 -246 -534 -494 -29 -83 -31 -96 -31 -233 0 -113 4 -158 18 -205 21 -67
80 -190 105 -218 15 -16 5 -29 -159 -195 -96 -97 -288 -293 -426 -435 l-251
-257 -84 60 c-160 115 -382 210 -578 246 -128 24 -380 24 -510 0 -200 -36
-415 -127 -577 -243 l-88 -64 -238 243 c-130 134 -321 329 -423 435 l-186 192
20 28 c33 48 69 125 93 203 31 97 33 289 5 389 -73 267 -270 468 -528 541 -85
24 -247 34 -327 19z m260 -285 c82 -25 127 -51 192 -113 66 -63 98 -112 126
-194 80 -232 -26 -476 -254 -584 -64 -30 -89 -36 -164 -41 -105 -6 -172 8
-255 51 -284 149 -348 511 -132 745 93 101 208 151 347 152 50 0 108 -7 140
-16z m4768 -3 c153 -48 268 -169 316 -336 13 -44 16 -82 13 -152 -5 -82 -10
-103 -41 -166 -45 -92 -96 -150 -171 -199 -196 -126 -449 -97 -610 71 -181
191 -180 475 3 660 58 59 151 114 217 130 71 16 207 13 273 -8z m-2342 -1721
c478 -78 866 -451 962 -927 26 -125 28 -323 6 -442 -48 -249 -163 -461 -346
-635 -148 -141 -326 -242 -516 -293 -89 -24 -115 -27 -288 -27 -165 -1 -201 2
-272 21 -344 92 -610 301 -766 601 -106 205 -143 366 -134 592 22 538 403 986
937 1100 97 21 317 26 417 10z m2509 -898 c63 -32 131 -114 150 -180 69 -236
-169 -448 -394 -352 -58 25 -132 99 -158 156 -26 60 -24 167 5 232 28 62 103
134 164 156 59 22 179 16 233 -12z m-692 -2126 c103 -31 174 -107 202 -216 33
-131 -27 -264 -150 -328 -43 -22 -64 -27 -131 -27 -67 0 -88 5 -131 27 -185
97 -216 355 -58 485 81 66 176 87 268 59z m-4177 -141 c197 -93 306 -314 262
-527 -26 -126 -124 -260 -236 -320 -287 -156 -651 22 -705 345 -33 199 79 410
266 502 127 63 281 63 413 0z"/>
<path d="M5380 5718 c-71 -20 -120 -88 -120 -166 0 -86 63 -153 152 -162 l51
-5 59 -97 c59 -95 59 -96 44 -127 -20 -37 -20 -91 -2 -135 14 -34 13 -36 -42
-124 l-56 -90 -54 -4 c-59 -5 -94 -27 -130 -79 -32 -46 -28 -138 7 -188 27
-37 91 -70 136 -71 45 0 116 40 142 79 27 40 31 126 9 169 -13 26 -11 32 43
119 49 81 59 91 79 86 41 -10 110 17 146 58 56 62 61 150 11 215 -34 44 -59
57 -124 64 l-54 5 -58 94 c-57 92 -58 95 -43 124 21 39 20 107 -2 152 -31 66
-119 104 -194 83z"/>
<path d="M4795 5681 c-69 -17 -123 -60 -146 -116 -6 -16 -14 -93 -17 -170 -6
-184 -19 -211 -109 -223 l-48 -7 0 -70 c0 -49 4 -70 13 -71 6 -1 25 -2 42 -3
17 0 43 -13 62 -30 l32 -29 7 -148 c7 -161 19 -207 67 -257 35 -36 108 -57
201 -57 l76 0 -3 64 -4 63 -48 6 c-52 6 -86 22 -96 47 -4 8 -10 76 -14 150 -7
159 -20 195 -87 239 l-44 30 29 15 c40 21 79 69 92 114 5 20 10 82 10 138 0
153 14 177 116 191 l44 6 0 63 0 64 -72 -1 c-40 -1 -86 -4 -103 -8z"/>
</g>
</svg>
